<?xml version="1.0" standalone="no"?>
<!DOCTYPE svg PUBLIC "-//W3C//DTD SVG 20010904//EN"
 "http://www.w3.org/TR/2001/REC-SVG-20010904/DTD/svg10.dtd">
<svg version="1.0" xmlns="http://www.w3.org/2000/svg"
 width="524.000000pt" height="524.000000pt" viewBox="0 0 524.000000 524.000000"
 preserveAspectRatio="xMidYMid meet">
<metadata>
Created by potrace 1.14, written by Peter Selinger 2001-2017
</metadata>
<g transform="translate(0.000000,524.000000) scale(0.100000,-0.100000)"
fill="#000000" stroke="none">
<path d="M2324 5184 c-55 -7 -116 -15 -135 -18 -71 -12 -95 -16 -119 -22 -14
-3 -32 -7 -40 -9 -104 -21 -307 -87 -435 -142 -155 -66 -458 -240 -517 -296
-7 -7 -33 -27 -58 -45 -69 -50 -237 -208 -320 -301 -41 -46 -80 -88 -85 -95
-77 -85 -229 -319 -307 -471 -112 -218 -214 -531 -244 -743 -3 -20 -11 -80
-18 -132 -13 -91 -15 -502 -2 -575 4 -28 10 -64 22 -155 8 -58 63 -274 90
-357 43 -132 73 -202 144 -348 149 -303 365 -581 630 -811 25 -21 47 -41 50
-44 15 -16 167 -125 240 -172 103 -67 151 -94 345 -191 196 -98 296 -137 425
-166 44 -10 57 -12 150 -26 25 -4 53 -9 62 -10 133 -25 621 -18 773 11 10 2
37 6 60 10 22 3 81 14 130 25 889 196 1604 844 1898 1720 52 154 93 349 114
544 10 90 10 406 0 510 -7 84 -8 91 -32 220 -21 110 -23 124 -30 145 -3 10 -8
27 -10 37 -30 146 -160 460 -264 640 -34 59 -149 232 -165 249 -6 6 -22 26
-36 44 -212 285 -568 571 -915 736 -245 116 -435 175 -725 225 -154 26 -517
33 -676 13z"/>
</g>
</svg>
